<svg width="307" height="58" viewBox="0 0 307 58" fill="none" xmlns="http://www.w3.org/2000/svg">
<path d="M68.8848 15.2947C68.8848 11.9536 70.6209 10.2991 74.0769 10.2991H83.2557C94.7813 10.2991 100.874 17.1098 100.874 30.0085C100.874 42.9072 94.7813 49.6858 83.2557 49.6858H74.0769C70.6048 49.6858 68.8848 48.0474 68.8848 44.6902V15.2947ZM82.2751 43.3088C89.5249 43.3088 92.9006 39.036 92.9006 30.0085C92.9006 20.981 89.4927 16.644 82.2751 16.644H76.6811V43.3088H82.2751Z" fill="white"></path>
<path d="M132.08 32.4931V36.1073C132.08 45.199 126.309 50.3553 117.966 50.3553C109.623 50.3553 103.82 45.199 103.82 36.1394V32.5413C103.82 23.7066 109.591 18.4379 117.966 18.4379C126.341 18.4379 132.08 23.7226 132.08 32.5092V32.4931ZM111.649 32.6698V36.0752C111.649 41.2957 114.076 44.444 117.966 44.444C121.856 44.444 124.268 41.2957 124.268 36.0752V32.6698C124.268 27.5135 121.937 24.333 117.966 24.333C113.996 24.333 111.649 27.5135 111.649 32.6698Z" fill="white"></path>
<path d="M159.554 49.9679C157.095 49.9679 155.745 48.474 155.745 45.7915V31.2544C155.745 27.2386 153.751 24.9897 150.231 24.9897C146.277 24.9897 143.801 27.8972 143.801 32.6679V45.7915C143.801 48.474 142.419 49.9679 139.991 49.9679C137.564 49.9679 136.182 48.474 136.182 45.7915V22.8533C136.182 20.3475 137.628 18.7894 139.927 18.7894C142.226 18.7894 143.544 20.1387 143.624 22.5963V24.4757H143.994C145.184 20.8455 148.607 18.5966 153.125 18.5966C159.651 18.5966 163.348 22.4678 163.348 29.1822V45.8236C163.348 48.5061 161.998 49.9839 159.571 49.9839L159.554 49.9679Z" fill="white"></path>
<path d="M167.273 32.4345C167.273 24.0657 172.819 18.4114 181.05 18.4114C188.846 18.4114 194.36 23.9532 194.36 31.5029C194.36 34.9404 193.379 36.0648 190.518 36.0648H175.022V37.398C175.054 41.6708 177.77 44.4016 182.303 44.4016C184.666 44.4016 186.338 43.8233 187.705 42.6989C189.183 41.5745 189.698 41.1407 190.887 41.1407C192.479 41.1407 193.572 42.233 193.572 43.9036C193.572 45.2529 192.736 46.554 191.289 47.5981C189.264 49.3008 185.776 50.3449 181.821 50.3449C172.835 50.3449 167.306 45.0601 167.306 36.3861V32.4345H167.273ZM187.078 31.2459V31.1816C187.078 27.0052 184.763 24.2905 181.162 24.2905C177.561 24.2905 175.005 27.0534 175.005 31.1816V31.2459H187.078Z" fill="white"></path>
<path d="M203.779 15.2947C203.779 11.9536 205.515 10.2991 208.971 10.2991H218.15C229.676 10.2991 235.768 17.1098 235.768 30.0085C235.768 42.9072 229.676 49.6858 218.15 49.6858H208.971C205.499 49.6858 203.779 48.0474 203.779 44.6902V15.2947ZM217.17 43.3088C224.419 43.3088 227.795 39.036 227.795 30.0085C227.795 20.981 224.387 16.644 217.17 16.644H211.576V43.3088H217.17Z" fill="white"></path>
<path d="M238.803 32.4345C238.803 24.0657 244.349 18.4114 252.579 18.4114C260.375 18.4114 265.889 23.9532 265.889 31.5029C265.889 34.9404 264.908 36.0648 262.047 36.0648H246.551V37.398C246.583 41.6708 249.3 44.4016 253.833 44.4016C256.196 44.4016 257.867 43.8233 259.234 42.6989C260.713 41.5745 261.227 41.1407 262.417 41.1407C264.008 41.1407 265.101 42.233 265.101 43.9036C265.101 45.2529 264.265 46.554 262.819 47.5981C260.793 49.3008 257.305 50.3449 253.35 50.3449C244.365 50.3449 238.835 45.0601 238.835 36.3861V32.4345H238.803ZM258.607 31.2459V31.1816C258.607 27.0052 256.292 24.2905 252.691 24.2905C249.091 24.2905 246.535 27.0534 246.535 31.1816V31.2459H258.607V31.2459Z" fill="white"></path>
<path d="M278.233 50.0875C272.254 50.0875 268.219 46.3448 268.219 40.7709C268.219 35.197 272.398 31.631 279.359 31.631H286.641V29.1252C286.641 26.0411 284.712 24.4187 281.207 24.4187C278.892 24.4187 277.253 25.2861 275.549 26.8121C274.681 27.5028 273.877 27.8241 272.639 27.8241C270.968 27.8241 269.923 26.6996 269.923 25.1415C269.923 23.3585 271.16 21.5273 273.845 20.178C275.774 19.166 278.346 18.5878 281.689 18.5878C289.711 18.5878 294.212 22.3947 294.212 29.1734V45.9111C294.212 48.5134 292.878 49.9751 290.515 49.9751C288.489 49.9751 287.171 48.8507 286.93 46.8589V45.7826H286.56C285.001 48.5294 281.963 50.0875 278.217 50.0875H278.233ZM280.773 44.61C284.069 44.61 286.641 42.3612 286.641 39.4698V36.2893H280.757C277.639 36.2893 275.79 37.7832 275.79 40.3051C275.79 42.827 277.815 44.61 280.789 44.61H280.773Z" fill="white"></path>
<path d="M299.381 45.7941V12.2062C299.381 9.4433 300.828 7.99762 303.191 7.99762C305.554 7.99762 307 9.4433 307 12.2062V45.7941C307 48.557 305.521 49.9705 303.191 49.9705C300.86 49.9705 299.381 48.557 299.381 45.7941Z" fill="white"></path>
<path d="M39.4316 0H18.1163C8.11779 0 0 8.11187 0 18.1031V39.4189C0 49.3941 8.11779 57.522 18.1163 57.522H39.4476C49.4301 57.522 57.564 49.4101 57.564 39.4189V18.1031C57.564 8.12794 49.4462 0 39.4476 0H39.4316ZM5.0475 41.7641C4.90283 40.9931 4.82245 40.206 4.82245 39.4028V18.1031C4.82245 10.7784 10.7862 4.81893 18.1163 4.81893H39.4476C43.1931 4.81893 46.5849 6.37706 48.9961 8.8829L41.8749 16.0149C37.8402 13.6697 32.6319 14.248 29.1919 17.6855L5.0475 41.7641ZM52.7255 39.4028C52.7255 46.7276 46.7617 52.687 39.4316 52.687H18.1163C14.3709 52.687 10.9791 51.1128 8.55181 48.607L15.6569 41.5071C19.7238 43.8523 24.9481 43.258 28.4042 39.8205L52.5004 15.7097C52.6451 16.4808 52.7255 17.2839 52.7255 18.1031V39.4189V39.4028Z" fill="white"></path>
</svg>