<svg width="48" height="48" viewBox="0 0 48 48" fill="none" xmlns="http://www.w3.org/2000/svg">
<rect x="0.5" y="0.5" width="47" height="47" rx="12.5" fill="#101E21"/>
<rect x="0.5" y="0.5" width="47" height="47" rx="12.5" stroke="#24D3EE"/>
<rect width="30" height="30" transform="translate(9 9)" fill="#101E21"/>
<path d="M24.7125 27.1395C24.6245 27.0367 24.5153 26.9543 24.3924 26.8977C24.2695 26.8412 24.1359 26.8119 24.0006 26.8119C23.8653 26.8119 23.7317 26.8412 23.6088 26.8977C23.4859 26.9543 23.3767 27.0367 23.2887 27.1395L17.6637 33.702C17.5469 33.838 17.4716 34.0048 17.4467 34.1824C17.4218 34.36 17.4484 34.541 17.5232 34.7039C17.5981 34.8669 17.7182 35.0049 17.8691 35.1017C18.0201 35.1985 18.1957 35.25 18.375 35.25H29.625C29.8043 35.25 29.9799 35.1985 30.1309 35.1017C30.2818 35.0049 30.4019 34.8669 30.4768 34.7039C30.5516 34.541 30.5782 34.36 30.5533 34.1824C30.5284 34.0048 30.4531 33.838 30.3363 33.702L24.7125 27.1395ZM20.4129 33.375L24 29.1902L27.5871 33.375H20.4129ZM36.1875 16.5V29.625C36.1875 30.3709 35.8912 31.0863 35.3637 31.6137C34.8363 32.1412 34.1209 32.4375 33.375 32.4375H32.4375C32.1889 32.4375 31.9504 32.3387 31.7746 32.1629C31.5988 31.9871 31.5 31.7486 31.5 31.5C31.5 31.2514 31.5988 31.0129 31.7746 30.8371C31.9504 30.6613 32.1889 30.5625 32.4375 30.5625H33.375C33.6236 30.5625 33.8621 30.4637 34.0379 30.2879C34.2137 30.1121 34.3125 29.8736 34.3125 29.625V16.5C34.3125 16.2514 34.2137 16.0129 34.0379 15.8371C33.8621 15.6613 33.6236 15.5625 33.375 15.5625H14.625C14.3764 15.5625 14.1379 15.6613 13.9621 15.8371C13.7863 16.0129 13.6875 16.2514 13.6875 16.5V29.625C13.6875 29.8736 13.7863 30.1121 13.9621 30.2879C14.1379 30.4637 14.3764 30.5625 14.625 30.5625H15.5625C15.8111 30.5625 16.0496 30.6613 16.2254 30.8371C16.4012 31.0129 16.5 31.2514 16.5 31.5C16.5 31.7486 16.4012 31.9871 16.2254 32.1629C16.0496 32.3387 15.8111 32.4375 15.5625 32.4375H14.625C13.8791 32.4375 13.1637 32.1412 12.6363 31.6137C12.1088 31.0863 11.8125 30.3709 11.8125 29.625V16.5C11.8125 15.7541 12.1088 15.0387 12.6363 14.5113C13.1637 13.9838 13.8791 13.6875 14.625 13.6875H33.375C34.1209 13.6875 34.8363 13.9838 35.3637 14.5113C35.8912 15.0387 36.1875 15.7541 36.1875 16.5Z" fill="#24D3EE"/>
</svg>
