<svg width="48" height="48" viewBox="0 0 48 48" fill="none" xmlns="http://www.w3.org/2000/svg">
<rect x="0.5" y="0.5" width="47" height="47" rx="12.5" fill="#1A1222"/>
<rect x="0.5" y="0.5" width="47" height="47" rx="12.5" stroke="#A856F6"/>
<rect width="30" height="30" transform="translate(9 9)" fill="#1A1222"/>
<path d="M33.375 12.75H14.625C14.1277 12.75 13.6508 12.9475 13.2992 13.2992C12.9475 13.6508 12.75 14.1277 12.75 14.625V33.375C12.75 33.8723 12.9475 34.3492 13.2992 34.7008C13.6508 35.0525 14.1277 35.25 14.625 35.25H33.375C33.8723 35.25 34.3492 35.0525 34.7008 34.7008C35.0525 34.3492 35.25 33.8723 35.25 33.375V14.625C35.25 14.1277 35.0525 13.6508 34.7008 13.2992C34.3492 12.9475 33.8723 12.75 33.375 12.75ZM19.3125 27.75C19.4979 27.75 19.6792 27.805 19.8333 27.908C19.9875 28.011 20.1077 28.1574 20.1786 28.3287C20.2496 28.5 20.2682 28.6885 20.232 28.8704C20.1958 29.0523 20.1065 29.2193 19.9754 29.3504C19.8443 29.4815 19.6773 29.5708 19.4954 29.607C19.3135 29.6432 19.125 29.6246 18.9537 29.5536C18.7824 29.4827 18.636 29.3625 18.533 29.2083C18.43 29.0542 18.375 28.8729 18.375 28.6875C18.375 28.4389 18.4738 28.2004 18.6496 28.0246C18.8254 27.8488 19.0639 27.75 19.3125 27.75ZM14.625 14.625H18.375V26.0367C17.7495 26.2579 17.2223 26.693 16.8866 27.2653C16.5509 27.8376 16.4283 28.5101 16.5405 29.164C16.6527 29.8179 16.9924 30.4111 17.4997 30.8387C18.0069 31.2663 18.649 31.5009 19.3125 31.5009C19.976 31.5009 20.6181 31.2663 21.1253 30.8387C21.6326 30.4111 21.9723 29.8179 22.0845 29.164C22.1967 28.5101 22.0741 27.8376 21.7384 27.2653C21.4027 26.693 20.8755 26.2579 20.25 26.0367V22.5129L25.875 28.1379V33.375H14.625V14.625ZM33.375 33.375H27.75V27.75C27.7501 27.6268 27.7259 27.5049 27.6789 27.3911C27.6318 27.2773 27.5628 27.1738 27.4758 27.0867L20.25 19.8621V14.625H24V17.4375C23.9999 17.5607 24.0241 17.6826 24.0711 17.7964C24.1182 17.9102 24.1872 18.0137 24.2742 18.1008L26.1492 19.9758C25.9676 20.3539 25.8739 20.7681 25.875 21.1875C25.875 21.7438 26.0399 22.2875 26.349 22.75C26.658 23.2126 27.0973 23.573 27.6112 23.7859C28.1251 23.9988 28.6906 24.0545 29.2362 23.946C29.7818 23.8374 30.2829 23.5696 30.6762 23.1762C31.0696 22.7829 31.3374 22.2818 31.446 21.7362C31.5545 21.1906 31.4988 20.6251 31.2859 20.1112C31.073 19.5973 30.7126 19.158 30.25 18.849C29.7875 18.54 29.2438 18.375 28.6875 18.375C28.268 18.3743 27.8538 18.4684 27.4758 18.6504L25.875 17.0496V14.625H33.375V33.375ZM28.6875 20.25C28.8729 20.25 29.0542 20.305 29.2083 20.408C29.3625 20.511 29.4827 20.6574 29.5536 20.8287C29.6246 21 29.6432 21.1885 29.607 21.3704C29.5708 21.5523 29.4815 21.7193 29.3504 21.8504C29.2193 21.9815 29.0523 22.0708 28.8704 22.107C28.6885 22.1432 28.5 22.1246 28.3287 22.0536C28.1574 21.9827 28.011 21.8625 27.908 21.7083C27.805 21.5542 27.75 21.3729 27.75 21.1875C27.75 20.9389 27.8488 20.7004 28.0246 20.5246C28.2004 20.3488 28.4389 20.25 28.6875 20.25Z" fill="#A856F6"/>
</svg>
