<svg width="48" height="48" viewBox="0 0 48 48" fill="none" xmlns="http://www.w3.org/2000/svg">
<rect x="0.5" y="0.5" width="47" height="47" rx="12.5" fill="#211B0E"/>
<rect x="0.5" y="0.5" width="47" height="47" rx="12.5" stroke="#E9B30B"/>
<rect width="30" height="30" transform="translate(9 9)" fill="#211B0E"/>
<path d="M34.3125 15.5625H29.625V14.625C29.625 13.8791 29.3287 13.1637 28.8012 12.6363C28.2738 12.1088 27.5584 11.8125 26.8125 11.8125H21.1875C20.4416 11.8125 19.7262 12.1088 19.1988 12.6363C18.6713 13.1637 18.375 13.8791 18.375 14.625V15.5625H13.6875C13.1902 15.5625 12.7133 15.76 12.3617 16.1117C12.01 16.4633 11.8125 16.9402 11.8125 17.4375V32.4375C11.8125 32.9348 12.01 33.4117 12.3617 33.7633C12.7133 34.115 13.1902 34.3125 13.6875 34.3125H34.3125C34.8098 34.3125 35.2867 34.115 35.6383 33.7633C35.99 33.4117 36.1875 32.9348 36.1875 32.4375V17.4375C36.1875 16.9402 35.99 16.4633 35.6383 16.1117C35.2867 15.76 34.8098 15.5625 34.3125 15.5625ZM20.25 14.625C20.25 14.3764 20.3488 14.1379 20.5246 13.9621C20.7004 13.7863 20.9389 13.6875 21.1875 13.6875H26.8125C27.0611 13.6875 27.2996 13.7863 27.4754 13.9621C27.6512 14.1379 27.75 14.3764 27.75 14.625V15.5625H20.25V14.625ZM34.3125 17.4375V22.3137C31.1482 24.0361 27.6027 24.9381 24 24.9375C20.3974 24.9382 16.8521 24.0365 13.6875 22.3148V17.4375H34.3125ZM34.3125 32.4375H13.6875V24.4266C16.8984 25.9971 20.4256 26.8132 24 26.8125C27.5744 26.8126 31.1017 25.9961 34.3125 24.4254V32.4375ZM21.1875 22.125C21.1875 21.8764 21.2863 21.6379 21.4621 21.4621C21.6379 21.2863 21.8764 21.1875 22.125 21.1875H25.875C26.1236 21.1875 26.3621 21.2863 26.5379 21.4621C26.7137 21.6379 26.8125 21.8764 26.8125 22.125C26.8125 22.3736 26.7137 22.6121 26.5379 22.7879C26.3621 22.9637 26.1236 23.0625 25.875 23.0625H22.125C21.8764 23.0625 21.6379 22.9637 21.4621 22.7879C21.2863 22.6121 21.1875 22.3736 21.1875 22.125Z" fill="#E9B30B"/>
</svg>
