<svg width="48" height="48" viewBox="0 0 48 48" fill="none" xmlns="http://www.w3.org/2000/svg">
<rect x="0.5" y="0.5" width="47" height="47" rx="12.5" fill="#231417"/>
<rect x="0.5" y="0.5" width="47" height="47" rx="12.5" stroke="#FA7184"/>
<rect width="30" height="30" transform="translate(9 9)" fill="#231417"/>
<path d="M34.3125 13.6875H13.6875C13.1902 13.6875 12.7133 13.885 12.3617 14.2367C12.01 14.5883 11.8125 15.0652 11.8125 15.5625V32.4375C11.8125 32.9348 12.01 33.4117 12.3617 33.7633C12.7133 34.115 13.1902 34.3125 13.6875 34.3125H34.3125C34.8098 34.3125 35.2867 34.115 35.6383 33.7633C35.99 33.4117 36.1875 32.9348 36.1875 32.4375V15.5625C36.1875 15.0652 35.99 14.5883 35.6383 14.2367C35.2867 13.885 34.8098 13.6875 34.3125 13.6875ZM34.3125 15.5625V17.4375H13.6875V15.5625H34.3125ZM34.3125 32.4375H13.6875V19.3125H34.3125V32.4375ZM29.625 22.125C29.625 23.6168 29.0324 25.0476 27.9775 26.1025C26.9226 27.1574 25.4918 27.75 24 27.75C22.5082 27.75 21.0774 27.1574 20.0225 26.1025C18.9676 25.0476 18.375 23.6168 18.375 22.125C18.375 21.8764 18.4738 21.6379 18.6496 21.4621C18.8254 21.2863 19.0639 21.1875 19.3125 21.1875C19.5611 21.1875 19.7996 21.2863 19.9754 21.4621C20.1512 21.6379 20.25 21.8764 20.25 22.125C20.25 23.1196 20.6451 24.0734 21.3483 24.7766C22.0516 25.4799 23.0054 25.875 24 25.875C24.9946 25.875 25.9484 25.4799 26.6516 24.7766C27.3549 24.0734 27.75 23.1196 27.75 22.125C27.75 21.8764 27.8488 21.6379 28.0246 21.4621C28.2004 21.2863 28.4389 21.1875 28.6875 21.1875C28.9361 21.1875 29.1746 21.2863 29.3504 21.4621C29.5262 21.6379 29.625 21.8764 29.625 22.125Z" fill="#FA7184"/>
</svg>
