<svg width="48" height="48" viewBox="0 0 48 48" fill="none" xmlns="http://www.w3.org/2000/svg">
<rect x="0.5" y="0.5" width="47" height="47" rx="12.5" fill="#211B0E"/>
<rect x="0.5" y="0.5" width="47" height="47" rx="12.5" stroke="#E9B30B"/>
<rect width="30" height="30" transform="translate(9 9)" fill="#211B0E"/>
<path d="M38.5028 19.4225L24.4403 11.9225C24.3047 11.8503 24.1534 11.8125 23.9997 11.8125C23.846 11.8125 23.6947 11.8503 23.5591 11.9225L9.49658 19.4225C9.34659 19.5024 9.22115 19.6216 9.13368 19.7674C9.04621 19.9131 9 20.0799 9 20.2498C9 20.4198 9.04621 20.5866 9.13368 20.7323C9.22115 20.878 9.34659 20.9973 9.49658 21.0772L12.7497 22.8127V28.487C12.7487 28.9474 12.9182 29.392 13.2255 29.735C14.7606 31.4448 18.2001 34.3123 23.9997 34.3123C25.9227 34.3282 27.8313 33.9799 29.6247 33.2858V37.1248C29.6247 37.3735 29.7235 37.6119 29.8993 37.7878C30.0751 37.9636 30.3136 38.0623 30.5622 38.0623C30.8108 38.0623 31.0493 37.9636 31.2251 37.7878C31.4009 37.6119 31.4997 37.3735 31.4997 37.1248V32.3799C32.7222 31.6742 33.8269 30.7818 34.7739 29.735C35.0812 29.392 35.2507 28.9474 35.2497 28.487V22.8127L38.5028 21.0772C38.6528 20.9973 38.7783 20.878 38.8657 20.7323C38.9532 20.5866 38.9994 20.4198 38.9994 20.2498C38.9994 20.0799 38.9532 19.9131 38.8657 19.7674C38.7783 19.6216 38.6528 19.5024 38.5028 19.4225ZM23.9997 32.4373C18.929 32.4373 15.9466 29.96 14.6247 28.487V23.8123L23.5591 28.5772C23.6947 28.6494 23.846 28.6872 23.9997 28.6872C24.1534 28.6872 24.3047 28.6494 24.4403 28.5772L29.6247 25.8127V31.2432C28.1481 31.9323 26.2872 32.4373 23.9997 32.4373ZM33.3747 28.4823C32.8127 29.1059 32.184 29.6659 31.4997 30.1522V24.812L33.3747 23.8123V28.4823ZM31.031 22.9381L31.0052 22.9229L24.4427 19.4225C24.2237 19.3107 23.9696 19.2893 23.7351 19.3631C23.5005 19.4368 23.3043 19.5997 23.1888 19.8167C23.0732 20.0337 23.0475 20.2874 23.1172 20.5232C23.1869 20.759 23.3464 20.9579 23.5614 21.0772L29.0388 23.9998L23.9997 26.687L11.9294 20.2498L23.9997 13.8127L36.07 20.2498L31.031 22.9381Z" fill="#E9B30B"/>
</svg>
