<svg width="48" height="48" viewBox="0 0 48 48" fill="none" xmlns="http://www.w3.org/2000/svg">
<rect x="0.5" y="0.5" width="47" height="47" rx="12.5" fill="#211B0E"/>
<rect x="0.5" y="0.5" width="47" height="47" rx="12.5" stroke="#E9B30B"/>
<rect width="30" height="30" transform="translate(9 9)" fill="#211B0E"/>
<path d="M11.8125 21.1869H14.625V28.6869H12.75C12.5014 28.6869 12.2629 28.7857 12.0871 28.9615C11.9113 29.1373 11.8125 29.3758 11.8125 29.6244C11.8125 29.8731 11.9113 30.1115 12.0871 30.2873C12.2629 30.4631 12.5014 30.5619 12.75 30.5619H35.25C35.4986 30.5619 35.7371 30.4631 35.9129 30.2873C36.0887 30.1115 36.1875 29.8731 36.1875 29.6244C36.1875 29.3758 36.0887 29.1373 35.9129 28.9615C35.7371 28.7857 35.4986 28.6869 35.25 28.6869H33.375V21.1869H36.1875C36.3915 21.1867 36.5898 21.12 36.7525 20.9969C36.9151 20.8737 37.0331 20.7009 37.0886 20.5046C37.1442 20.3084 37.1342 20.0993 37.0602 19.9092C36.9861 19.7192 36.8522 19.5584 36.6785 19.4514L24.491 11.9514C24.3433 11.8606 24.1734 11.8125 24 11.8125C23.8266 11.8125 23.6567 11.8606 23.509 11.9514L11.3215 19.4514C11.1478 19.5584 11.0139 19.7192 10.9398 19.9092C10.8658 20.0993 10.8558 20.3084 10.9114 20.5046C10.9669 20.7009 11.0849 20.8737 11.2475 20.9969C11.4102 21.12 11.6085 21.1867 11.8125 21.1869ZM16.5 21.1869H20.25V28.6869H16.5V21.1869ZM25.875 21.1869V28.6869H22.125V21.1869H25.875ZM31.5 28.6869H27.75V21.1869H31.5V28.6869ZM24 13.8498L32.8758 19.3119H15.1242L24 13.8498ZM38.0625 33.3744C38.0625 33.6231 37.9637 33.8615 37.7879 34.0373C37.6121 34.2131 37.3736 34.3119 37.125 34.3119H10.875C10.6264 34.3119 10.3879 34.2131 10.2121 34.0373C10.0363 33.8615 9.9375 33.6231 9.9375 33.3744C9.9375 33.1258 10.0363 32.8873 10.2121 32.7115C10.3879 32.5357 10.6264 32.4369 10.875 32.4369H37.125C37.3736 32.4369 37.6121 32.5357 37.7879 32.7115C37.9637 32.8873 38.0625 33.1258 38.0625 33.3744Z" fill="#E9B30B"/>
</svg>
