<svg width="48" height="48" viewBox="0 0 48 48" fill="none" xmlns="http://www.w3.org/2000/svg">
<rect x="0.5" y="0.5" width="47" height="47" rx="12.5" fill="#111F16"/>
<rect x="0.5" y="0.5" width="47" height="47" rx="12.5" stroke="#33D67F"/>
<rect width="30" height="30" transform="translate(9 9)" fill="#111F16"/>
<path d="M29.6234 22.125H26.8109C26.5623 22.125 26.3238 22.0262 26.148 21.8504C25.9722 21.6746 25.8734 21.4361 25.8734 21.1875C25.8734 20.9389 25.9722 20.7004 26.148 20.5246C26.3238 20.3488 26.5623 20.25 26.8109 20.25H29.6234C29.8721 20.25 30.1105 20.3488 30.2864 20.5246C30.4622 20.7004 30.5609 20.9389 30.5609 21.1875C30.5609 21.4361 30.4622 21.6746 30.2864 21.8504C30.1105 22.0262 29.8721 22.125 29.6234 22.125ZM21.1859 20.25H20.2484V19.3125C20.2484 19.0639 20.1497 18.8254 19.9739 18.6496C19.798 18.4738 19.5596 18.375 19.3109 18.375C19.0623 18.375 18.8238 18.4738 18.648 18.6496C18.4722 18.8254 18.3734 19.0639 18.3734 19.3125V20.25H17.4359C17.1873 20.25 16.9488 20.3488 16.773 20.5246C16.5972 20.7004 16.4984 20.9389 16.4984 21.1875C16.4984 21.4361 16.5972 21.6746 16.773 21.8504C16.9488 22.0262 17.1873 22.125 17.4359 22.125H18.3734V23.0625C18.3734 23.3111 18.4722 23.5496 18.648 23.7254C18.8238 23.9012 19.0623 24 19.3109 24C19.5596 24 19.798 23.9012 19.9739 23.7254C20.1497 23.5496 20.2484 23.3111 20.2484 23.0625V22.125H21.1859C21.4346 22.125 21.673 22.0262 21.8489 21.8504C22.0247 21.6746 22.1234 21.4361 22.1234 21.1875C22.1234 20.9389 22.0247 20.7004 21.8489 20.5246C21.673 20.3488 21.4346 20.25 21.1859 20.25ZM37.2969 32.5137C36.9436 33.0182 36.484 33.4393 35.9506 33.7473C35.4172 34.0552 34.8228 34.2427 34.2091 34.2964C33.5955 34.3501 32.9776 34.2688 32.3988 34.0582C31.8199 33.8476 31.2942 33.5128 30.8586 33.0773C30.8445 33.0633 30.8305 33.0492 30.8176 33.034L26.1641 27.75H21.8281L17.1793 33.034L17.1383 33.0773C16.3463 33.8676 15.2735 34.3117 14.1547 34.3125C13.5388 34.3123 12.9304 34.1772 12.3723 33.9168C11.8142 33.6563 11.3199 33.2768 10.924 32.805C10.5282 32.3331 10.2405 31.7803 10.0812 31.1854C9.92181 30.5905 9.89464 29.9679 10.0016 29.3613C10.001 29.3559 10.001 29.3504 10.0016 29.3449L11.9199 19.4906C12.2054 17.8653 13.0546 16.3926 14.3182 15.3313C15.5819 14.27 17.1791 13.688 18.8293 13.6875H29.1547C30.7999 13.6901 32.3923 14.2688 33.6553 15.3231C34.9183 16.3774 35.7722 17.8407 36.0688 19.459C36.0688 19.466 36.0688 19.473 36.0688 19.4801L37.9871 29.3438C37.9877 29.3492 37.9877 29.3547 37.9871 29.3602C38.0864 29.9053 38.0765 30.4648 37.958 31.0061C37.8395 31.5474 37.6148 32.0598 37.2969 32.5137ZM29.1547 25.875C30.5222 25.875 31.8337 25.3318 32.8007 24.3648C33.7677 23.3978 34.3109 22.0863 34.3109 20.7188C34.3109 19.3512 33.7677 18.0397 32.8007 17.0727C31.8337 16.1057 30.5222 15.5625 29.1547 15.5625H18.8293C17.6187 15.5636 16.4473 15.9916 15.5211 16.7711C14.5949 17.5507 13.9733 18.6319 13.7656 19.8246V19.8398L11.8461 29.6941C11.7612 30.1827 11.8335 30.6856 12.0526 31.1304C12.2716 31.5753 12.626 31.9392 13.065 32.1699C13.5039 32.4006 14.0047 32.4861 14.4953 32.4141C14.9859 32.3422 15.4411 32.1165 15.7953 31.7695L20.7078 26.1926C20.7958 26.0928 20.904 26.0129 21.0252 25.9581C21.1464 25.9034 21.2779 25.875 21.4109 25.875H29.1547ZM36.1508 29.6941L35.1266 24.4207C34.4966 25.4379 33.6176 26.2775 32.5726 26.8601C31.5275 27.4427 30.3511 27.749 29.1547 27.75H28.6625L32.2016 31.7707C32.4684 32.0302 32.793 32.2228 33.1486 32.3326C33.5043 32.4424 33.881 32.4663 34.2477 32.4023C34.8585 32.2945 35.4018 31.9489 35.7583 31.4413C36.1148 30.9336 36.2555 30.3054 36.1496 29.6941H36.1508Z" fill="#33D67F"/>
</svg>
