<svg width="48" height="48" viewBox="0 0 48 48" fill="none" xmlns="http://www.w3.org/2000/svg">
<rect x="0.5" y="0.5" width="47" height="47" rx="12.5" fill="#231417"/>
<rect x="0.5" y="0.5" width="47" height="47" rx="12.5" stroke="#FA7184"/>
<rect width="30" height="30" transform="translate(9 9)" fill="#231417"/>
<path d="M17.4375 25.875H12.75C12.5014 25.875 12.2629 25.7762 12.0871 25.6004C11.9113 25.4246 11.8125 25.1861 11.8125 24.9375C11.8125 24.6889 11.9113 24.4504 12.0871 24.2746C12.2629 24.0988 12.5014 24 12.75 24H16.9359L18.532 21.6047C18.6176 21.4761 18.7336 21.3706 18.8698 21.2977C19.006 21.2248 19.158 21.1866 19.3125 21.1866C19.467 21.1866 19.619 21.2248 19.7552 21.2977C19.8914 21.3706 20.0074 21.4761 20.093 21.6047L23.0625 26.0578L24.157 24.4172C24.2427 24.2888 24.3588 24.1835 24.4949 24.1107C24.6311 24.0379 24.7831 23.9999 24.9375 24H27.75C27.9986 24 28.2371 24.0988 28.4129 24.2746C28.5887 24.4504 28.6875 24.6889 28.6875 24.9375C28.6875 25.1861 28.5887 25.4246 28.4129 25.6004C28.2371 25.7762 27.9986 25.875 27.75 25.875H25.4391L23.843 28.2703C23.7574 28.3989 23.6414 28.5044 23.5052 28.5773C23.369 28.6502 23.217 28.6884 23.0625 28.6884C22.908 28.6884 22.756 28.6502 22.6198 28.5773C22.4836 28.5044 22.3676 28.3989 22.282 28.2703L19.3125 23.8148L18.218 25.4555C18.1326 25.5843 18.0166 25.6901 17.8804 25.7633C17.7443 25.8365 17.5921 25.8748 17.4375 25.875ZM29.8594 13.6875C27.4395 13.6875 25.3207 14.7281 24 16.4871C22.6793 14.7281 20.5605 13.6875 18.1406 13.6875C16.2143 13.6897 14.3675 14.4559 13.0055 15.818C11.6434 17.18 10.8772 19.0268 10.875 20.9531C10.875 21.041 10.875 21.1289 10.875 21.2168C10.8828 21.4654 10.989 21.7008 11.1703 21.8711C11.3516 22.0414 11.5932 22.1328 11.8418 22.125C12.0904 22.1172 12.3258 22.011 12.4961 21.8297C12.6664 21.6484 12.7578 21.4068 12.75 21.1582C12.75 21.0902 12.75 21.0211 12.75 20.9531C12.7519 19.524 13.3204 18.154 14.3309 17.1434C15.3415 16.1329 16.7115 15.5644 18.1406 15.5625C20.4199 15.5625 22.3336 16.7766 23.1328 18.7266C23.2034 18.8985 23.3236 19.0456 23.478 19.1491C23.6324 19.2526 23.8141 19.3078 24 19.3078C24.1859 19.3078 24.3676 19.2526 24.522 19.1491C24.6764 19.0456 24.7966 18.8985 24.8672 18.7266C25.6664 16.773 27.5801 15.5625 29.8594 15.5625C31.2885 15.5644 32.6585 16.1329 33.6691 17.1434C34.6796 18.154 35.2481 19.524 35.25 20.9531C35.25 27.2355 26.1375 32.9238 24 34.1719C22.7309 33.4324 19.0043 31.125 16.1859 28.0535C16.1027 27.9627 16.0024 27.8892 15.8907 27.8372C15.779 27.7852 15.6582 27.7556 15.5351 27.7503C15.4121 27.745 15.2891 27.7639 15.1734 27.8061C15.0577 27.8483 14.9513 27.9128 14.8605 27.9961C14.7697 28.0793 14.6962 28.1797 14.6442 28.2913C14.5922 28.403 14.5627 28.5238 14.5573 28.6469C14.552 28.77 14.571 28.8929 14.6131 29.0086C14.6553 29.1244 14.7199 29.2307 14.8031 29.3215C18.4559 33.3059 23.3496 35.9637 23.5559 36.075C23.6924 36.1484 23.845 36.1869 24 36.1869C24.155 36.1869 24.3076 36.1484 24.4441 36.075C24.9621 35.7961 37.125 29.1562 37.125 20.9531C37.1228 19.0268 36.3566 17.18 34.9946 15.818C33.6325 14.4559 31.7857 13.6897 29.8594 13.6875Z" fill="#FA7184"/>
</svg>
