<svg width="48" height="48" viewBox="0 0 48 48" fill="none" xmlns="http://www.w3.org/2000/svg">
<rect x="0.5" y="0.5" width="47" height="47" rx="12.5" fill="#231417"/>
<rect x="0.5" y="0.5" width="47" height="47" rx="12.5" stroke="#FA7184"/>
<rect width="30" height="30" transform="translate(9 9)" fill="#231417"/>
<path d="M12.3203 30.7188H35.6797C35.918 30.7188 36.1465 30.6241 36.3149 30.4556C36.4835 30.2871 36.5781 30.0586 36.5781 29.8203C36.5781 29.582 36.4835 29.3535 36.3149 29.1851C36.1465 29.0165 35.918 28.9219 35.6797 28.9219H34.7812V27.125C34.778 24.4221 33.7609 21.8189 31.931 19.8298C30.1011 17.8405 27.5916 16.6103 24.8984 16.382V14.5469H26.6953C26.9336 14.5469 27.1621 14.4522 27.3306 14.2837C27.4991 14.1153 27.5938 13.8867 27.5938 13.6484C27.5938 13.4102 27.4991 13.1816 27.3306 13.0132C27.1621 12.8446 26.9336 12.75 26.6953 12.75H21.3047C21.0664 12.75 20.8379 12.8446 20.6694 13.0132C20.5009 13.1816 20.4062 13.4102 20.4062 13.6484C20.4062 13.8867 20.5009 14.1153 20.6694 14.2837C20.8379 14.4522 21.0664 14.5469 21.3047 14.5469H23.1016V16.382C20.4084 16.6103 17.8989 17.8405 16.069 19.8298C14.2391 21.8189 13.222 24.4221 13.2188 27.125V28.9219H12.3203C12.082 28.9219 11.8535 29.0165 11.6851 29.1851C11.5165 29.3535 11.4219 29.582 11.4219 29.8203C11.4219 30.0586 11.5165 30.2871 11.6851 30.4556C11.8535 30.6241 12.082 30.7188 12.3203 30.7188ZM15.0156 27.125C15.0156 24.7422 15.9622 22.457 17.6471 20.7721C19.332 19.0872 21.6172 18.1406 24 18.1406C26.3828 18.1406 28.668 19.0872 30.3529 20.7721C32.0378 22.457 32.9844 24.7422 32.9844 27.125V28.9219H15.0156V27.125ZM36.5781 33.4141C36.5781 33.6523 36.4835 33.8809 36.3149 34.0493C36.1465 34.2179 35.918 34.3125 35.6797 34.3125H12.3203C12.082 34.3125 11.8535 34.2179 11.6851 34.0493C11.5165 33.8809 11.4219 33.6523 11.4219 33.4141C11.4219 33.1758 11.5165 32.9472 11.6851 32.7788C11.8535 32.6103 12.082 32.5156 12.3203 32.5156H35.6797C35.918 32.5156 36.1465 32.6103 36.3149 32.7788C36.4835 32.9472 36.5781 33.1758 36.5781 33.4141Z" fill="#FA7184" stroke="#FA7184" stroke-width="0.234375"/>
</svg>
