<svg width="48" height="48" viewBox="0 0 48 48" fill="none" xmlns="http://www.w3.org/2000/svg">
<rect x="0.5" y="0.5" width="47" height="47" rx="12.5" fill="#1A1222"/>
<rect x="0.5" y="0.5" width="47" height="47" rx="12.5" stroke="#A856F6"/>
<rect width="30" height="30" transform="translate(9 9)" fill="#1A1222"/>
<path d="M26.8125 20.25H21.1875C20.9389 20.25 20.7004 20.3488 20.5246 20.5246C20.3488 20.7004 20.25 20.9389 20.25 21.1875V26.8125C20.25 27.0611 20.3488 27.2996 20.5246 27.4754C20.7004 27.6512 20.9389 27.75 21.1875 27.75H26.8125C27.0611 27.75 27.2996 27.6512 27.4754 27.4754C27.6512 27.2996 27.75 27.0611 27.75 26.8125V21.1875C27.75 20.9389 27.6512 20.7004 27.4754 20.5246C27.2996 20.3488 27.0611 20.25 26.8125 20.25ZM25.875 25.875H22.125V22.125H25.875V25.875ZM36.1875 25.875H34.3125V22.125H36.1875C36.4361 22.125 36.6746 22.0262 36.8504 21.8504C37.0262 21.6746 37.125 21.4361 37.125 21.1875C37.125 20.9389 37.0262 20.7004 36.8504 20.5246C36.6746 20.3488 36.4361 20.25 36.1875 20.25H34.3125V15.5625C34.3125 15.0652 34.115 14.5883 33.7633 14.2367C33.4117 13.885 32.9348 13.6875 32.4375 13.6875H27.75V11.8125C27.75 11.5639 27.6512 11.3254 27.4754 11.1496C27.2996 10.9738 27.0611 10.875 26.8125 10.875C26.5639 10.875 26.3254 10.9738 26.1496 11.1496C25.9738 11.3254 25.875 11.5639 25.875 11.8125V13.6875H22.125V11.8125C22.125 11.5639 22.0262 11.3254 21.8504 11.1496C21.6746 10.9738 21.4361 10.875 21.1875 10.875C20.9389 10.875 20.7004 10.9738 20.5246 11.1496C20.3488 11.3254 20.25 11.5639 20.25 11.8125V13.6875H15.5625C15.0652 13.6875 14.5883 13.885 14.2367 14.2367C13.885 14.5883 13.6875 15.0652 13.6875 15.5625V20.25H11.8125C11.5639 20.25 11.3254 20.3488 11.1496 20.5246C10.9738 20.7004 10.875 20.9389 10.875 21.1875C10.875 21.4361 10.9738 21.6746 11.1496 21.8504C11.3254 22.0262 11.5639 22.125 11.8125 22.125H13.6875V25.875H11.8125C11.5639 25.875 11.3254 25.9738 11.1496 26.1496C10.9738 26.3254 10.875 26.5639 10.875 26.8125C10.875 27.0611 10.9738 27.2996 11.1496 27.4754C11.3254 27.6512 11.5639 27.75 11.8125 27.75H13.6875V32.4375C13.6875 32.9348 13.885 33.4117 14.2367 33.7633C14.5883 34.115 15.0652 34.3125 15.5625 34.3125H20.25V36.1875C20.25 36.4361 20.3488 36.6746 20.5246 36.8504C20.7004 37.0262 20.9389 37.125 21.1875 37.125C21.4361 37.125 21.6746 37.0262 21.8504 36.8504C22.0262 36.6746 22.125 36.4361 22.125 36.1875V34.3125H25.875V36.1875C25.875 36.4361 25.9738 36.6746 26.1496 36.8504C26.3254 37.0262 26.5639 37.125 26.8125 37.125C27.0611 37.125 27.2996 37.0262 27.4754 36.8504C27.6512 36.6746 27.75 36.4361 27.75 36.1875V34.3125H32.4375C32.9348 34.3125 33.4117 34.115 33.7633 33.7633C34.115 33.4117 34.3125 32.9348 34.3125 32.4375V27.75H36.1875C36.4361 27.75 36.6746 27.6512 36.8504 27.4754C37.0262 27.2996 37.125 27.0611 37.125 26.8125C37.125 26.5639 37.0262 26.3254 36.8504 26.1496C36.6746 25.9738 36.4361 25.875 36.1875 25.875ZM32.4375 32.4375H15.5625V15.5625H32.4375V26.7973C32.4375 26.7973 32.4375 26.8078 32.4375 26.8125C32.4375 26.8172 32.4375 26.823 32.4375 26.8277V32.4375Z" fill="#A856F6"/>
</svg>
