<svg width="48" height="48" viewBox="0 0 48 48" fill="none" xmlns="http://www.w3.org/2000/svg">
<rect x="0.5" y="0.5" width="47" height="47" rx="12.5" fill="#231417"/>
<rect x="0.5" y="0.5" width="47" height="47" rx="12.5" stroke="#FA7184"/>
<rect width="30" height="30" transform="translate(9 9)" fill="#231417"/>
<path d="M35.9695 15.8988C35.8815 15.7935 35.7715 15.7088 35.6471 15.6507C35.5228 15.5926 35.3872 15.5625 35.25 15.5625H16.3453L15.6328 11.6449C15.5936 11.4289 15.4798 11.2335 15.3112 11.0928C15.1427 10.9521 14.9301 10.875 14.7105 10.875H11.8125C11.5639 10.875 11.3254 10.9738 11.1496 11.1496C10.9738 11.3254 10.875 11.5639 10.875 11.8125C10.875 12.0611 10.9738 12.2996 11.1496 12.4754C11.3254 12.6512 11.5639 12.75 11.8125 12.75H13.9219L16.9172 29.1902C17.0054 29.6778 17.2209 30.1334 17.5418 30.5109C17.0989 30.9246 16.7792 31.4529 16.6182 32.0372C16.4572 32.6215 16.4612 33.2389 16.6296 33.8211C16.7981 34.4033 17.1246 34.9274 17.5728 35.3354C18.021 35.7434 18.5734 36.0192 19.1688 36.1324C19.7642 36.2456 20.3793 36.1917 20.9459 35.9766C21.5125 35.7615 22.0085 35.3937 22.3789 34.914C22.7492 34.4342 22.9795 33.8613 23.0441 33.2587C23.1087 32.6561 23.0052 32.0474 22.7449 31.5H28.0676C27.8578 31.9391 27.7493 32.4196 27.75 32.9062C27.75 33.5552 27.9424 34.1896 28.303 34.7292C28.6635 35.2688 29.176 35.6894 29.7756 35.9377C30.3751 36.1861 31.0349 36.2511 31.6714 36.1245C32.3079 35.9978 32.8926 35.6853 33.3514 35.2264C33.8103 34.7676 34.1228 34.1829 34.2495 33.5464C34.3761 32.9099 34.3111 32.2501 34.0627 31.6506C33.8144 31.051 33.3938 30.5385 32.8542 30.178C32.3146 29.8174 31.6802 29.625 31.0312 29.625H19.684C19.4644 29.625 19.2519 29.5479 19.0833 29.4072C18.9148 29.2665 18.801 29.0711 18.7617 28.8551L18.3902 26.8125H31.984C32.6426 26.8124 33.2804 26.5811 33.786 26.159C34.2916 25.7369 34.633 25.1508 34.7508 24.5027L36.1758 16.6676C36.1999 16.5322 36.1939 16.3931 36.1583 16.2602C36.1226 16.1274 36.0582 16.004 35.9695 15.8988ZM21.1875 32.9062C21.1875 33.1844 21.105 33.4563 20.9505 33.6875C20.796 33.9188 20.5764 34.099 20.3194 34.2055C20.0624 34.3119 19.7797 34.3397 19.5069 34.2855C19.2341 34.2312 18.9835 34.0973 18.7869 33.9006C18.5902 33.7039 18.4563 33.4534 18.402 33.1806C18.3478 32.9078 18.3756 32.6251 18.482 32.3681C18.5885 32.1111 18.7687 31.8915 19 31.737C19.2312 31.5825 19.5031 31.5 19.7812 31.5C20.1542 31.5 20.5119 31.6482 20.7756 31.9119C21.0393 32.1756 21.1875 32.5333 21.1875 32.9062ZM32.4375 32.9062C32.4375 33.1844 32.355 33.4563 32.2005 33.6875C32.046 33.9188 31.8264 34.099 31.5694 34.2055C31.3124 34.3119 31.0297 34.3397 30.7569 34.2855C30.4841 34.2312 30.2335 34.0973 30.0369 33.9006C29.8402 33.7039 29.7063 33.4534 29.652 33.1806C29.5978 32.9078 29.6256 32.6251 29.732 32.3681C29.8385 32.1111 30.0187 31.8915 30.25 31.737C30.4812 31.5825 30.7531 31.5 31.0312 31.5C31.4042 31.5 31.7619 31.6482 32.0256 31.9119C32.2893 32.1756 32.4375 32.5333 32.4375 32.9062ZM32.9062 24.1676C32.8669 24.3842 32.7526 24.58 32.5833 24.7208C32.414 24.8616 32.2006 24.9383 31.9805 24.9375H18.0492L16.6863 17.4375H34.1262L32.9062 24.1676Z" fill="#FA7184"/>
</svg>
