<svg width="48" height="48" viewBox="0 0 48 48" fill="none" xmlns="http://www.w3.org/2000/svg">
<rect x="0.5" y="0.5" width="47" height="47" rx="12.5" fill="#1A1222"/>
<rect x="0.5" y="0.5" width="47" height="47" rx="12.5" stroke="#A856F6"/>
<rect width="30" height="30" transform="translate(9 9)" fill="#1A1222"/>
<path d="M36.1875 22.125H24.9375V19.3125H25.875C26.3723 19.3125 26.8492 19.115 27.2008 18.7633C27.5525 18.4117 27.75 17.9348 27.75 17.4375V13.6875C27.75 13.1902 27.5525 12.7133 27.2008 12.3617C26.8492 12.01 26.3723 11.8125 25.875 11.8125H22.125C21.6277 11.8125 21.1508 12.01 20.7992 12.3617C20.4475 12.7133 20.25 13.1902 20.25 13.6875V17.4375C20.25 17.9348 20.4475 18.4117 20.7992 18.7633C21.1508 19.115 21.6277 19.3125 22.125 19.3125H23.0625V22.125H11.8125C11.5639 22.125 11.3254 22.2238 11.1496 22.3996C10.9738 22.5754 10.875 22.8139 10.875 23.0625C10.875 23.3111 10.9738 23.5496 11.1496 23.7254C11.3254 23.9012 11.5639 24 11.8125 24H15.5625V27.75H14.625C14.1277 27.75 13.6508 27.9475 13.2992 28.2992C12.9475 28.6508 12.75 29.1277 12.75 29.625V33.375C12.75 33.8723 12.9475 34.3492 13.2992 34.7008C13.6508 35.0525 14.1277 35.25 14.625 35.25H18.375C18.8723 35.25 19.3492 35.0525 19.7008 34.7008C20.0525 34.3492 20.25 33.8723 20.25 33.375V29.625C20.25 29.1277 20.0525 28.6508 19.7008 28.2992C19.3492 27.9475 18.8723 27.75 18.375 27.75H17.4375V24H30.5625V27.75H29.625C29.1277 27.75 28.6508 27.9475 28.2992 28.2992C27.9475 28.6508 27.75 29.1277 27.75 29.625V33.375C27.75 33.8723 27.9475 34.3492 28.2992 34.7008C28.6508 35.0525 29.1277 35.25 29.625 35.25H33.375C33.8723 35.25 34.3492 35.0525 34.7008 34.7008C35.0525 34.3492 35.25 33.8723 35.25 33.375V29.625C35.25 29.1277 35.0525 28.6508 34.7008 28.2992C34.3492 27.9475 33.8723 27.75 33.375 27.75H32.4375V24H36.1875C36.4361 24 36.6746 23.9012 36.8504 23.7254C37.0262 23.5496 37.125 23.3111 37.125 23.0625C37.125 22.8139 37.0262 22.5754 36.8504 22.3996C36.6746 22.2238 36.4361 22.125 36.1875 22.125ZM22.125 13.6875H25.875V17.4375H22.125V13.6875ZM18.375 33.375H14.625V29.625H18.375V33.375ZM33.375 33.375H29.625V29.625H33.375V33.375Z" fill="#A856F6"/>
</svg>
