<svg width="48" height="48" viewBox="0 0 48 48" fill="none" xmlns="http://www.w3.org/2000/svg">
<rect x="0.5" y="0.5" width="47" height="47" rx="12.5" fill="#111F16"/>
<rect x="0.5" y="0.5" width="47" height="47" rx="12.5" stroke="#33D67F"/>
<rect width="30" height="30" transform="translate(9 9)" fill="#111F16"/>
<path d="M35.1861 13.6958C35.1727 13.4665 35.0755 13.25 34.9131 13.0876C34.7506 12.9251 34.5342 12.828 34.3048 12.8146C25.3833 12.2908 18.2372 14.9767 15.1904 20.0158C14.1342 21.7395 13.6138 23.738 13.6951 25.7579C13.7618 27.6236 14.3056 29.5079 15.3111 31.3654L13.0247 33.6505C12.8488 33.8264 12.75 34.065 12.75 34.3138C12.75 34.5626 12.8488 34.8012 13.0247 34.9771C13.2007 35.153 13.4392 35.2518 13.688 35.2518C13.9368 35.2518 14.1754 35.153 14.3513 34.9771L16.6365 32.6908C18.4927 33.6951 20.3783 34.2388 22.2427 34.3056C22.3732 34.3103 22.5033 34.3126 22.6329 34.3126C24.5217 34.3177 26.3747 33.7975 27.9849 32.8103C33.024 29.7634 35.7111 22.6185 35.1861 13.6958ZM27.0181 31.2072C24.3521 32.822 21.1962 32.8478 18.0286 31.2974L28.415 20.9122C28.5021 20.8251 28.5712 20.7217 28.6183 20.6079C28.6655 20.4941 28.6897 20.3721 28.6897 20.249C28.6897 20.1258 28.6655 20.0038 28.6183 19.89C28.5712 19.7762 28.5021 19.6728 28.415 19.5857C28.3279 19.4986 28.2245 19.4295 28.1107 19.3823C27.9969 19.3352 27.8749 19.3109 27.7517 19.3109C27.6285 19.3109 27.5065 19.3352 27.3927 19.3823C27.2789 19.4295 27.1755 19.4986 27.0884 19.5857L16.7033 29.9767C15.1576 26.8126 15.1798 23.6486 16.7935 20.9872C19.3822 16.7134 25.5357 14.3732 33.3533 14.6521C33.6333 22.4638 31.2919 28.6185 27.0181 31.2072Z" fill="#33D67F"/>
</svg>
