<svg width="48" height="48" viewBox="0 0 48 48" fill="none" xmlns="http://www.w3.org/2000/svg">
<rect x="0.5" y="0.5" width="47" height="47" rx="12.5" fill="#101E21"/>
<rect x="0.5" y="0.5" width="47" height="47" rx="12.5" stroke="#24D3EE"/>
<rect width="30" height="30" transform="translate(9 9)" fill="#101E21"/>
<path d="M27.751 13.6875C25.8358 13.689 23.9588 14.2232 22.3298 15.2305C20.7009 16.2377 19.3842 17.6783 18.5272 19.391C17.5076 19.2423 16.4683 19.3053 15.4742 19.576C14.48 19.8468 13.5523 20.3194 12.7489 20.9646C11.9455 21.6097 11.2836 22.4135 10.8046 23.3257C10.3256 24.238 10.0397 25.2391 9.96471 26.2668C9.88973 27.2944 10.0273 28.3264 10.3688 29.2986C10.7104 30.2707 11.2486 31.162 11.9498 31.9169C12.6511 32.6718 13.5004 33.2741 14.4447 33.6863C15.389 34.0985 16.4082 34.3116 17.4385 34.3125H27.751C30.4861 34.3125 33.1091 33.226 35.0431 31.292C36.977 29.3581 38.0635 26.735 38.0635 24C38.0635 21.265 36.977 18.6419 35.0431 16.708C33.1091 14.774 30.4861 13.6875 27.751 13.6875ZM27.751 32.4375H17.4385C15.9467 32.4375 14.5159 31.8449 13.4611 30.79C12.4062 29.7351 11.8135 28.3043 11.8135 26.8125C11.8135 25.3207 12.4062 23.8899 13.4611 22.835C14.5159 21.7801 15.9467 21.1875 17.4385 21.1875C17.5674 21.1875 17.6963 21.1875 17.8241 21.2004C17.5677 22.1115 17.438 23.0535 17.4385 24C17.4385 24.2486 17.5373 24.4871 17.7131 24.6629C17.8889 24.8387 18.1274 24.9375 18.376 24.9375C18.6247 24.9375 18.8631 24.8387 19.0389 24.6629C19.2148 24.4871 19.3135 24.2486 19.3135 24C19.3135 22.3312 19.8084 20.6999 20.7355 19.3124C21.6626 17.9248 22.9804 16.8434 24.5221 16.2048C26.0639 15.5662 27.7604 15.3991 29.3971 15.7246C31.0338 16.0502 32.5372 16.8538 33.7172 18.0338C34.8972 19.2138 35.7008 20.7172 36.0264 22.3539C36.352 23.9906 36.1849 25.6871 35.5463 27.2289C34.9076 28.7706 33.8262 30.0884 32.4387 31.0155C31.0511 31.9426 29.4198 32.4375 27.751 32.4375Z" fill="#24D3EE"/>
</svg>
